# xmcd
#
# Track frame offsets:
#	150
#	30623
#	115531
#	222564
#	244392
#	285021
#	322894
#
# Disc length: 4781 seconds
#
# Revision: 1
# Processed by: cddbd v1.5.2PL0 Copyright (c) Steve Scherf et al.
# Submitted via: audiograbber 1.83.01
#
DISCID=5912ab07
DTITLE=Grateful Dead - 92-05-19 Cal Expo Amphitheatre, Sacrimento CA
DYEAR=1900
DGENRE=
TTITLE0=Way To Go Home
TTITLE1=Terrapin Station
TTITLE2=Drums > Jam
TTITLE3=I Need A Miracle
TTITLE4=Black Peter
TTITLE5=Sugar Magnolia
TTITLE6=Baba O'Riley > Tomorrow Never Knows
EXTD=
EXTT0=
EXTT1=
EXTT2=
EXTT3=
EXTT4=
EXTT5=
EXTT6=
PLAYORDER=
